#!OML:ASF E:\Style4\Style4.ASF
:FULLY-SPECIFIED
:DEGREES
1837
root -1.66862 17.4642 -1.52378 8.62221 3.4001 -20.2919
lowerback 9.84853 3.63525 -13.9735
upperback 2.43139 3.05734 -8.14238
thorax -3.22773 1.56537 -1.22707
lowerneck 2.80472 -4.63408 -7.47583
upperneck 4.98131 -6.26595 0.628829
head 1.35643 -3.23121 1.42218
rclavicle -4.77083e-014 5.40694e-014
rhumerus -80.5382 54.3869 -126.284
rradius 78.1264
rwrist 2.08746
rhand -7.46632 33.9646
rfingers 7.12502
rthumb 18.4223 4.81692
lclavicle -4.77083e-014 5.40694e-014
lhumerus -25.2311 25.7252 20.2352
lradius 105.003
lwrist -12.254
lhand -7.56989 35.9301
lfingers 7.12502
lthumb 18.3227 65.0871
rfemur -11.8597 -7.15246 46.7493
rtibia 14.6492
rfoot -13.5149 -5.74063
rtoes -2.00657
lfemur -28.949 2.82526 10.9452
ltibia 46.3686
lfoot -23.8435 3.9625
ltoes -22.6318
1838
root -1.66183 17.4708 -1.52244 8.62968 3.4883 -20.1132
lowerback 9.79899 3.57099 -13.7895
upperback 2.45446 3.00969 -8.09585
thorax -3.16534 1.53892 -1.26313
lowerneck 2.74027 -4.62316 -7.53035
upperneck 4.98103 -6.24965 0.683701
head 1.37099 -3.22373 1.44787
rclavicle -3.18055e-015 6.36111e-015
rhumerus -80.5916 54.4181 -126.241
rradius 78.2437
rwrist 2.00852
rhand -7.57165 33.8681
rfingers 7.12502
rthumb 18.321 4.71084
lclavicle -3.18055e-015 6.36111e-015
lhumerus -25.1508 25.6495 20.2585
lradius 104.856
lwrist -12.2119
lhand -7.40857 35.8824
lfingers 7.12502
lthumb 18.4778 65.0248
rfemur -11.9145 -7.01437 46.548
rtibia 14.6852
rfoot -13.4942 -6.01643
rtoes -2.05544
lfemur -28.934 2.65669 10.728
ltibia 46.2263
lfoot -23.7957 4.04101
ltoes -22.6347
1839
root -1.65135 17.4751 -1.51783 8.88754 3.82868 -19.8061
lowerback 9.49547 3.37879 -13.5478
upperback 2.46016 2.85076 -8.09967
thorax -2.96628 1.45428 -1.35318
lowerneck 2.73276 -4.63471 -7.51297
upperneck 4.86989 -6.26777 0.711031
head 1.33785 -3.22996 1.45453
rclavicle 2.8625e-014 -1.24042e-013
rhumerus -80.5298 54.398 -126.118
rradius 78.3124
rwrist 2.0085
rhand -7.64103 33.45
rfingers 7.12502
rthumb 18.2542 4.28652
lclavicle 2.8625e-014 -1.24042e-013
lhumerus -25.1066 25.5725 20.3209
lradius 104.747
lwrist -12.1489
lhand -7.47063 35.7726
lfingers 7.12502
lthumb 18.4181 64.9207
rfemur -12.3075 -6.89369 46.2551
rtibia 14.7729
rfoot -13.5838 -6.27414
rtoes -1.3235
lfemur -29.3213 2.39793 10.3853
ltibia 46.0774
lfoot -23.6689 4.05799
ltoes -22.3212
1840
root -1.63507 17.4813 -1.5221 8.61506 3.24744 -19.6527
lowerback 9.67378 3.59479 -13.4721
upperback 2.47242 3.10331 -8.05509
thorax -3.07128 1.57936 -1.39186
lowerneck 2.63771 -4.6406 -7.50939
upperneck 4.79003 -6.27221 0.766098
head 1.33081 -3.23016 1.47018
rclavicle -4.29375e-014 -3.18055e-014
rhumerus -80.455 54.3911 -125.982
rradius 78.3743
rwrist 1.97027
rhand -7.80864 32.6728
rfingers 7.12502
rthumb 18.093 3.49436
lclavicle -4.29375e-014 -3.18055e-014
lhumerus -25.033 25.4165 20.4043
lradius 104.653
lwrist -12.0103
lhand -7.87819 36.1433
lfingers 7.12502
lthumb 18.026 65.328
rfemur -11.9427 -6.56782 45.8773
rtibia 14.9268
rfoot -13.625 -6.15198
rtoes -0.813891
lfemur -28.62 2.55032 10.0726
ltibia 45.9151
lfoot -23.7667 4.17927
ltoes -22.0436
1841
root -1.62082 17.4907 -1.52238 8.49522 3.03097 -19.4131
lowerback 9.75731 3.65499 -13.3871
upperback 2.46093 3.17335 -7.99343
thorax -3.13511 1.61575 -1.38705
lowerneck 2.62445 -4.63032 -7.46724
upperneck 4.64238 -6.26153 0.795153
head 1.28484 -3.22104 1.47378
rclavicle -3.49861e-014 7.95139e-014
rhumerus -80.4894 54.3577 -125.916
rradius 78.4256
rwrist 1.92867
rhand -7.83936 32.263
rfingers 7.12502
rthumb 18.0634 3.08183
lclavicle -3.49861e-014 7.95139e-014
lhumerus -25.0281 25.2675 20.4234
lradius 104.584
lwrist -11.9652
lhand -7.86951 36.4489
lfingers 7.12502
lthumb 18.0344 65.6328
rfemur -11.9332 -6.39606 45.5143
rtibia 15.2729
rfoot -13.7553 -6.23286
rtoes -0.72636
lfemur -28.2542 2.5152 9.7113
ltibia 45.6878
lfoot -23.7625 4.30649
ltoes -22.0279
1842
root -1.60839 17.5014 -1.52202 8.49308 3.00047 -19.0477
lowerback 9.75537 3.63795 -13.3598
upperback 2.41683 3.15001 -7.96055
thorax -3.18028 1.60774 -1.36503
lowerneck 2.73499 -4.61378 -7.41291
upperneck 4.41376 -6.25376 0.831459
head 1.1919 -3.21153 1.48157
rclavicle -1.11319e-014 1.39944e-013
rhumerus -80.5792 54.2517 -125.882
rradius 78.5351
rwrist 1.92531
rhand -7.5403 32.1319
rfingers 7.12502
rthumb 18.3511 2.97749
lclavicle -1.11319e-014 1.39944e-013
lhumerus -25.0475 25.1203 20.4288
lradius 104.502
lwrist -11.9715
lhand -7.6659 36.2802
lfingers 7.12502
lthumb 18.2303 65.4459
rfemur -12.1683 -6.19434 45.0659
rtibia 15.7534
rfoot -13.9421 -6.45619
rtoes -0.308815
lfemur -28.0831 2.3777 9.23189
ltibia 45.3837
lfoot -23.6625 4.4755
ltoes -21.9644
1843
root -1.59138 17.5246 -1.52395 8.70172 2.99884 -18.4984
lowerback 9.61955 3.57301 -13.4447
upperback 2.33531 3.07296 -7.98218
thorax -3.18917 1.57402 -1.32716
lowerneck 2.8024 -4.58844 -7.41621
upperneck 4.10675 -6.23519 0.935671
head 1.08601 -3.19563 1.52122
rclavicle -2.22639e-014 -9.54166e-014
rhumerus -80.6009 54.2071 -125.851
rradius 78.5894
rwrist 1.88855
rhand -7.3 31.9596
rfingers 7.12502
rthumb 18.5823 2.82717
lclavicle -2.22639e-014 -9.54166e-014
lhumerus -25.0918 25.0148 20.4179
lradius 104.406
lwrist -11.9085
lhand -7.69141 36.1513
lfingers 7.12502
lthumb 18.2057 65.3193
rfemur -12.566 -6.12179 44.4599
rtibia 16.1973
rfoot -14.16 -6.5803
rtoes -0.396306
lfemur -28.1059 2.20562 8.51747
ltibia 45.0358
lfoot -23.6067 4.70747
ltoes -21.9267
1844
root -1.56836 17.5508 -1.52772 9.01127 2.98302 -17.8417
lowerback 9.43537 3.50349 -13.5733
upperback 2.23122 2.99125 -8.03568
thorax -3.19508 1.53888 -1.2978
lowerneck 2.68019 -4.59153 -7.45463
upperneck 3.97308 -6.238 1.07635
head 1.07132 -3.19438 1.57173
rclavicle 1.27222e-014 -6.67916e-014
rhumerus -80.6397 54.2084 -125.839
rradius 78.6367
rwrist 1.80726
rhand -7.34273 31.6784
rfingers 7.12502
rthumb 18.5412 2.54205
lclavicle 1.27222e-014 -6.67916e-014
lhumerus -25.1392 24.9914 20.4339
lradius 104.363
lwrist -11.8516
lhand -7.71551 36.1598
lfingers 7.12502
lthumb 18.1826 65.3299
rfemur -12.9924 -6.15853 43.7427
rtibia 16.4748
rfoot -14.2384 -6.6354
rtoes -1.17799
lfemur -28.2204 2.00556 7.65964
ltibia 44.6898
lfoot -23.5239 4.95484
ltoes -21.6392
